<svg xmlns="http://www.w3.org/2000/svg" xmlns:xlink="http://www.w3.org/1999/xlink" width="1920.01" height="1080.5" viewBox="0 0 1920.01 1080.5">
  <defs>
    <clipPath id="clip-path">
      <rect id="사각형_3" data-name="사각형 3" width="1919.422" height="1080" transform="translate(584 0.005)" fill="none"/>
    </clipPath>
    <clipPath id="clip-path-2">
      <rect id="사각형_4" data-name="사각형 4" width="1920" height="908.265" transform="translate(584.412 172.24)" fill="none"/>
    </clipPath>
  </defs>
  <g id="그룹_5" data-name="그룹 5" transform="translate(-583.412 -0.005)">
    <rect id="사각형_1" data-name="사각형 1" width="1920" height="504" transform="translate(583.421 0.505)" fill="#d1edff"/>
    <g id="그룹_2" data-name="그룹 2">
      <g id="그룹_1" data-name="그룹 1" clip-path="url(#clip-path)">
        <path id="패스_1" data-name="패스 1" d="M669.689,54.714c-3.038-7.469-5.3-18.014,1.308-23.076,3.518-2.695,8.167-2.369,12.058-1.081A30.038,30.038,0,0,1,700.8,46.908c-1.215,1.491-3.633.194-3.8-1.685s1.06-3.673,2.324-5.117c7.385-8.434,19.393-12.6,28.651-8.321s13.757,17.845,8.008,27.579c-1.653-5.521,2.457-12.153,7.767-14.317s11.162-.667,15.712,2.344c5.3,3.507,9.455,9.467,9.459,16.368s-5.18,14.293-11.639,14.87a7.322,7.322,0,0,1,7.617-1.223c6.829,2.851,6.706,14.209,1.58,20.549s-13.038,8.875-20.435,11.068c-9.634,2.856-19.3,5.717-29.1,7.258-9.994,1.573-20.536,1.651-29.106-3.178-8.057-4.54-13.668-13.389-14.77-23.292,5.814-.4,7.83,8.821,4.138,13.929s-10.045,6.759-15.825,7.909c-12.69,2.525-27.083,4-36.348-4.6-6.963-6.467-9.158-18.169-5.224-27.844s13.713-16.623,23.268-16.533c-1.55,2.94-4.121,5.546-7.162,6.094s-6.339-1.62-6.4-4.876c-.054-2.7,1.917-5.1,3.9-6.943,8.7-8.085,20.473-12.095,36.282-2.233" fill="#fff"/>
        <path id="패스_2" data-name="패스 2" d="M1034.45,202.051c-.317-5.034-.625-10.188.528-15.049s4.074-9.457,8.217-10.755c4.535-1.421,9.415,1.476,12.4,5.746s4.447,9.691,5.8,14.984c.3-8.684,4.6-17.031,11-21.363a19.45,19.45,0,0,1,21.211-.444,16.244,16.244,0,0,1,7.625,10.673c.833,4.7-1.364,10.252-5.312,11.459-1.34-11.535,9.63-21.078,19.462-19.855s17.849,9.858,23.734,19.213a3.93,3.93,0,0,1,.836,2.885c-.248,1.013-1.78,1.3-1.93.259-.948-1.246.513-3.07,1.863-3.59,6.679-2.574,14.294,3.43,16.193,11.4s-1.03,16.748-6,22.6-11.684,9.186-18.438,11.471a79.623,79.623,0,0,1-23.467,4.2c-6.018.156-12.571-.636-16.972-5.473s-4.753-14.926.632-18.094c3,6.082,1.954,14.162-1.523,19.884s-8.984,9.343-14.684,11.453c-20.719,7.672-43.121-2.862-61.537-16.421a9.234,9.234,0,0,1-2.348-2.219c-1.659-2.485-1.05-6.291.649-8.737s4.22-3.853,6.655-5.183c3.944,3.363,5.463,10.142,3.442,15.358s-7.365,8.309-12.106,7c-8.311-2.286-11.069-14.46-11.594-24.491-.214-4.1-.3-8.357,1.006-12.171a16.381,16.381,0,0,1,11.762-10.573c5.051-1.142,10.311.083,15.1,2.289,5.954,2.743,11.4,7.008,7.8,3.543" fill="#fff"/>
        <path id="패스_3" data-name="패스 3" d="M2197.489,93.99c.774-6.929,1.705-14.033,5.594-20.242s11.423-11.418,20.048-11.506c8.818-.091,16.629,5.189,20.656,11.516s5.015,13.587,5.933,20.661c.6-9.263,9.319-17.807,20.471-20.074s23.847,1.925,29.824,9.85c4.407,5.844,4.194,14.862-3.242,18.15,2.5-17.329,26.336-30.483,47.269-26.084s33.779,25.264,25.472,41.372c-1.068-1.154.857-2.861,2.621-2.63a5.447,5.447,0,0,1,3.753,2.849c5.306,8.588,1.3,19.422-6.652,26.559s-19.106,11.33-30.074,15.049c-13.466,4.565-27.214,8.72-41.487,11.222-11.58,2.031-24.464,2.79-34.546-2.231s-14.6-17.779-5.973-24.334c2.438,6.149-2.18,12.992-8.846,16.566s-14.9,4.579-22.864,5.236c-17.524,1.445-36.686,1.282-50.823-7.194-9.894-5.933-16.1-15.678-16.32-25.62a21.312,21.312,0,0,1,12.93-20.317c8.834-3.686,21.954-.078,23.829,7.8-12.095.727-24.477-3.949-31.527-11.907-1.938-2.188-3.54-4.786-3.165-7.457.286-2.024,1.674-3.838,3.252-5.427,8.924-8.989,25.47-12.436,33.867-1.807" fill="#fff"/>
      </g>
    </g>
    <g id="그룹_4" data-name="그룹 4" transform="translate(-1)">
      <g id="그룹_3" data-name="그룹 3" clip-path="url(#clip-path-2)">
        <path id="패스_4" data-name="패스 4" d="M217.349,436.207c210.276-16.732,432.753-33.5,657.573-16.447,170.244,12.913,334.644,44.813,504.488,43.512,133.824-1.025,245.5-22.691,371.74-32.084,177.173-13.182,375.711-1.65,562.091,15.745s369.369,40.686,558.8,51.907c44.672,2.646,89.919,4.615,134.022,3.949,105.644-1.594,207.958-17.987,311.635-6.255l19.928,751.066L330.6,1180.829Z" fill="#0071ce"/>
        <path id="패스_5" data-name="패스 5" d="M0,719.986c12.715-15.336,41.572-25.525,70.194-33.709,168.607-48.212,381.618-54.485,560.147-16.495,87.112,18.537,170.593,47.439,265.1,47.2,121.063-.3,218.167-47.494,323.847-77.366,191.482-54.126,432.4-51.861,636.225-10.852,128.49,25.852,248.9,66.478,386.474,73.557,111.816,5.755,222.948-11.455,328.7-30.7,0,0-1.4,369.324,9.274,398.747S61.15,1088.584,61.15,1088.584Z" fill="#0047ba"/>
        <path id="패스_6" data-name="패스 6" d="M2632.471,1088.031H114.863l-3.124-128.717c101.99-29.505,211.079-55.7,330.031-70.449s248.976-17.46,366.278-.567c137.563,19.81,253.14,65.409,397.516,73.005,172.5,9.075,329.353-37.987,494.089-61.2,43.767-6.167,89.691-10.723,135.793-9.516,169.891,4.45,289.5,83.337,459.6,86.022,49.788.786,98.551-5.247,147.839-8.292,75.627-4.67,152.614-2.291,228.85.1Z" fill="#1226aa"/>
        <path id="패스_7" data-name="패스 7" d="M2577.133,1088.038H502.313l-2.574-41.728c84.053-9.565,173.956-18.058,271.986-22.838s205.187-5.66,301.858-.184c113.37,6.422,208.619,21.205,327.6,23.667,142.16,2.942,271.427-12.315,407.19-19.839,36.07-2,73.917-3.476,111.91-3.085,140.011,1.443,238.583,27.017,378.769,27.887,41.032.255,81.219-1.7,121.838-2.688,62.326-1.514,125.773-.743,188.6.031Z" fill="#bc955c"/>
        <path id="패스_8" data-name="패스 8" d="M2324.1,1028.254c1.894-3.222,3.325-7.139,2.212-10.79-1.351-4.431-5.824-6.838-9.092-10.033a22.089,22.089,0,0,1-6.491-14.559c-.338-7.215,2.856-13.952,4.678-20.879s1.865-15.423-3.349-20.281c-1.924-1.793-4.388-2.894-6.2-4.811-4.055-4.295-3.666-11.119-2.994-17.029q1.426-12.555,2.852-25.109c.628-5.526.365-12.709-4.65-14.769-3.085-1.268-6.636.306-8.866,2.788-3.184,3.545-4.333,8.682-4.111,13.581s1.674,9.66,3.113,14.354q2.006,6.54,4.01,13.08c.677,2.209,1.355,4.6.641,6.772-.621,1.881-2.177,3.222-3.226,4.879-2.814,4.447-1.645,10.4-.226,15.6a274.835,274.835,0,0,0,9.456,28.414c2.215,5.614,4.666,11.652,3.339,17.493-.921,4.055-3.549,7.394-5.275,11.138a26.743,26.743,0,0,0-1.829,16.487,32.1,32.1,0,0,0,2.017,6.2,40.654,40.654,0,0,0-11.29,3.324,5.759,5.759,0,0,1-.177-.788c-.428-2.893,1.455-5.477,2.63-8.1,3.231-7.225.656-16.824-5.749-21.425-1.49-1.07-3.215-1.961-4.14-3.581a7.061,7.061,0,0,1-.758-3.769c.182-4.728,2.974-8.781,5.1-12.922s3.623-9.374,1.273-13.476c-2.4-4.2-7.743-5.368-11.154-8.735-4.221-4.168-4.774-11.038-3.47-16.856s4.121-11.124,5.7-16.861,1.726-12.478-1.86-17.246c-3.174-4.22-8.442-5.9-13.263-7.731s-9.982-4.521-11.829-9.508c-1.656-4.472-.136-9.376.505-14.077,1.517-11.145-3.708-24.361-14.182-27.482-7.264,4.112-11.3,13.528-9.429,22.024,3.1,14.1,19.7,22.8,20.492,37.2a7.289,7.289,0,0,1-.35,3.045,14.14,14.14,0,0,1-2.238,3.176c-3.059,4.045-3.036,9.926-1.315,14.838s4.889,9.121,7.838,13.372a188.345,188.345,0,0,1,11.645,19.118,11.368,11.368,0,0,1,1.772,5.578c-.093,2.475-1.714,4.518-2.977,6.593-6.292,10.339-3.621,25.65,5.81,33.32,3.652,2.969,8.361,5.19,10.064,9.664,1.443,3.792.206,8.062-1.551,11.643s-4.055,6.955-4.874,10.9c-.02.1-.025.191-.043.286q-3.643,1.925-7.274,3.872a23.722,23.722,0,0,0-4.778,3.244,10.765,10.765,0,0,1-3.815-3.784c-1.51-2.992-.272-6.633,1.405-9.462s3.84-5.527,4.27-8.842c.865-6.672-5.468-11.98-11.366-14.9s-12.8-5.691-15.251-11.988c-4.408-11.323,9.225-24.231,3.695-35.025-3.6-7.022-13.079-8.109-18.23-14.007-3.131-3.584-4.3-8.546-4.849-13.321a69.42,69.42,0,0,1,.4-18.879c.434-2.717,1.018-5.583.064-8.181-1.428-3.89-5.792-5.732-9.758-6.084a16.624,16.624,0,0,0-11.01,2.553,11.567,11.567,0,0,0-5.016,10.114c.3,3.66,2.528,6.833,4.671,9.787l8.7,11.988a10.758,10.758,0,0,1,2.066,3.877c.9,4.14-2.978,7.416-6.148,9.994-5.541,4.506-10.416,10.6-11.275,17.916-1.234,10.511,6.09,20.3,14.384,26.639s17.994,10.688,25.435,18.091c2.532,2.519,4.882,5.661,5.013,9.272.091,2.531-.924,4.92-1.821,7.253-2.015,5.237-3.526,11.159-1.639,16.525,2.791,7.939,11.582,11.4,19.337,13.874-1.926.317.286,2.464,2.538,2.779.1.013.191.012.286.02a5.9,5.9,0,0,0,.818,1.457c3.424,4.421,9.927,3.72,15.178,2.5q18.9-4.392,37.363-10.426a22.425,22.425,0,0,0,5.582-2.422c3.109-2.076,5-5.464,6.477-9.071,2.751-1.6,4.922-3.89,4.5-6.992-.4-2.91-3.078-5-3.827-7.84a8.788,8.788,0,0,1,.276-4.778c1.106-3.61,3.51-6.577,5.4-9.8" fill="#ffab4d"/>
        <path id="패스_9" data-name="패스 9" d="M2243.93,1032.633c-10.316-13.519-16.832-27.815-22.291-44.208-2.708-8.274-5.266-16.265-6.455-23.915-1.744-9.151-3.836-18.407-5.727-26.057a32.249,32.249,0,0,1-.609-4.673c-.109-.664.114-1.407-.218-2.013a1.434,1.434,0,0,0-2.684.789c-.131,4.1.957,8.071,1.97,12.008.611,2.578,1.466,7.712,2.563,11.5,1.131,5.684,2.831,15.885,4.993,22.911,5.89,19.994,13.74,39.77,26.652,56.333.376.447.54,1.091,1.062,1.389a1.515,1.515,0,0,0,2.3-.992c.12-1.206-.971-2.117-1.557-3.075" fill="#e47e3d"/>
        <path id="패스_10" data-name="패스 10" d="M2274.6,980.624c-.95-3.46-2.712-6.585-4.262-9.8-1.79-4.087-3.292-8.3-4.79-12.506-4.159-13.923-8.064-27.918-12.337-41.807a206.924,206.924,0,0,0-6.48-20.629,128.553,128.553,0,0,1-3.953-12.511c-.051-.258-.2-.984-.234-1.22-.161-.7-.035-1.537-.637-2.034a1.336,1.336,0,0,0-2.17,1.13c.971,7.861,4.211,15.219,6.691,22.687,2.341,7.058,3.961,14.336,6.291,21.4,4.158,12.987,7.148,26.361,11.864,39.162.968,2.531,1.837,5.1,3,7.556a67.957,67.957,0,0,1,3.711,8.157c.521,1.066.368,2.634,1.508,3.257a1.531,1.531,0,0,0,2.137-1.1,4.6,4.6,0,0,0-.338-1.754" fill="#e47e3d"/>
        <path id="패스_11" data-name="패스 11" d="M2305.281,972.877a37.673,37.673,0,0,0-.881-4.722c-2.66-10.717-3.737-24.607-4.486-36.93-.338-4.463-.385-8.931-.438-13.4q-.53-6.581-.7-13.178a1.519,1.519,0,0,0-3.025.265c.859,17.614,1.026,35.311,3.572,52.8.583,4.422,1.931,10.318,2.623,13.336.445,1.325-.147,3.672,1.446,4.2,1.481.453,2.285-1.075,1.884-2.363" fill="#e47e3d"/>
        <path id="패스_12" data-name="패스 12" d="M2237.438,1078.207a38.231,38.231,0,0,1-.744-4.826c.921-8.065-1.472-33.211.2-48.834,1.506-14.076,5.448-29.444,16.735-37,8.408-5.629,18.956-5.6,28.871-6.353a156.539,156.539,0,0,0,63.062-18.795c14.9-8.147,30.159-19.1,46.78-16.843,14.406,1.96,25.863,13.506,35.328,25.2,8.514,10.518,16.54,22.111,19.46,35.628,4.286,19.846-3.031,40.215-10.216,59.093-1.285,3.377-2.615,6.832-4.921,9.53-2.349,2.749-5.537,4.506-8.714,6.057-26.648,13.012-56.854,15.3-86.159,13.974s-58.445-6.054-87.776-6.256c-4.015-.028-8.585-.226-11.181-3.478-2.054-2.575-.725-7.1-.725-7.1" fill="#93897f"/>
        <path id="패스_13" data-name="패스 13" d="M2104.233,1006.393a6.9,6.9,0,0,0-8.234-2.97c-2.729.887-5.491,1.72-8.147,2.753-2.075.376-4.193.557-6.312.732-.091-3.812.149-8.019,2.235-12.082.672-.864,1.507-1.623,2.208-2.471,5.393-5.043-1.33-12.476-8.05-8.636A6.208,6.208,0,0,0,2076,985.97a33.35,33.35,0,0,0-2.131,3.283,31.422,31.422,0,0,0-2.189,11.617c.032,1.761.125,3.524.267,5.286-4.48-1.307-9.124-2.353-13.761-1.517-3.23.661-6.511,1.853-8.735,4.007-.324.424-.576.751-.775,1.009-.087-.2-.168-.4-.256-.6-4.656-10.324-7.24-15.913-7.022-23.855,5.618-1.737,10.635-.206,20.464-1.621a15,15,0,0,0,6.961-3.1,3.953,3.953,0,0,0-1.025-5.926c-2.359-1.476-5.347-.842-8.121-.368.087-.681.025-.274.819-2.294,1.175-1.94.269-1.032,2.813-3.836,6.194-4.213,7.593-4.918,15.266-7.5a25.315,25.315,0,0,0,2.8-.669c5.41-1.916,4.107-9.032-1.783-9.776a8.88,8.88,0,0,0-4.275.713,65.542,65.542,0,0,0-1.393-7.66c-1.2-5.446-2.525-11.024-5.83-15.9-2.55-5.051-11.187-4.121-11.873,1.269-.282,1.6.606,3.015,1.494,4.383a29.934,29.934,0,0,1,2.125,4.5c1.488,4.684,2.581,9.446,3.805,14.178a28.8,28.8,0,0,1,.6,3.223c-.075.232-.141.464-.2.7-8.073,4.024-11.286,7.881-13.652,13.871-.482,1.9-1.266,3.937-1.165,5.93-1.6.126-3.192.259-4.775.465-.631.15-1.232.268-1.825.384,1.477-5.346,5.435-13.058,9.563-19.955a34.007,34.007,0,0,1,4.48-4.625c4.785-3.154,1.285-10.067-4.773-9.406-3.474.516-5.629,3.338-7.71,5.559-.12-.267-.286-.638-.54-1.173a34.31,34.31,0,0,1-1.331-6c.017-5.117-7.663-7.588-11.163-3.566-1.683,1.893-1.194,4.309-.7,6.547a22.052,22.052,0,0,0,4.845,9.312c1.057.914,2.011,2.073,3.114,3.024-7.148,11.473-11.287,24.614-8.622,37.871.8,4.349,3.232,10.311,5.58,15.663a57.967,57.967,0,0,0-5.682-2.722,68.674,68.674,0,0,0-7.684-2.187c1.29-7.857-.338-13.163-1.214-18.717-.3-1.617-.5-5.566-1.2-10.551a90.835,90.835,0,0,0-6.464-20.151,36.576,36.576,0,0,0-3.417-5.773,17.554,17.554,0,0,1,3-2.419c.965-.669,2.006-1.247,3-1.885a3.9,3.9,0,0,0,1.649-4.678c-.578-2.157-3.256-3.544-5.695-3.294-2.1.272-3.679,1.656-5.219,2.8-.857.735-1.732,1.495-2.579,2.284-1.838-2.073-3.708-4.126-5.466-6.225-.817-1.068.029.078.367.587-1.882-2.583-1.152-2.135-4-6.424l.751,1.084c-.243-.459-.791-1.283-1.144-1.8l.217.309a5.347,5.347,0,0,0-2.908-2.5c-3.165-1.247-6.935.644-7.261,3.586a3.974,3.974,0,0,0,.084,1.41,1.967,1.967,0,0,0,.086.416,15.179,15.179,0,0,0,.531,1.821c.052.154.1.307.158.461a24.493,24.493,0,0,0,4.935,8.562c3.031,3.47,6.25,6.835,8.948,10.507,1.224,2,2.178,3.712,2.969,5.294a10.217,10.217,0,0,1-2.914-.687c-.236-.1-.464-.209-.693-.318a43.106,43.106,0,0,1-8.631-6.119,34.6,34.6,0,0,1-2.8-3.063,6.693,6.693,0,0,0-1.574-1.9c-2.877-2.846-8.647-1.817-10.067,1.573-1.394,2.914.917,5.653,2.917,7.967a49.528,49.528,0,0,0,16.167,11.61,22.6,22.6,0,0,0,10.488,1.327c.287-.028.581-.042.876-.052.481,1.749.991,3.687,1.635,5.985.74,3.3.77,6.67,1.365,9.987,1,4.8.812,3,1.992,7.832.57,2.9,1.367,5.795,1.671,8.723q-.024.381-.08.763c-.616-.082-1.232-.162-1.848-.236a56.522,56.522,0,0,0-3.856-10.477c-.635-1.56-1.158-3.149-1.708-4.73.012.038.028.084.042.126a4.665,4.665,0,0,0-1.676-2.4c-2.91-2.808-8.537-1.814-10,1.562-1.107,2.18.253,4.471.966,6.629.894,2.7,2.238,5.264,3.406,7.881-1.54-.224-3.075-.484-4.6-.813l-.176-.047c-2.338-.9-5.364-.676-7.028,1.024a4.819,4.819,0,0,0-.386,7.068c1.52,1.814,4.147,2.11,6.441,2.669,8.548,1.734,17.348,1.732,25.9,3.47,6.946,1.254,9.646,2.417,18.446,6.734a19.046,19.046,0,0,1-1.185,2c-2.662,4.9-5.832,10.216-5.077,15.868a8.689,8.689,0,0,0,5.979,6.467c2.315.749,4.752.548,7.145.53,4.964-.254,10.178.276,14.863-1.284a6.525,6.525,0,0,0,4.413-8.587,25.8,25.8,0,0,0-2.457-8.393,63.715,63.715,0,0,0-4.242-6.74,8.035,8.035,0,0,1,2.46-5.024c.082-.05.186-.114.316-.192a18.373,18.373,0,0,1,1.932-.75c.278-.032.889-.113,1.5-.153l.233.006c3.926.365,2.114.247,7.7,1.8a30.393,30.393,0,0,0,13.435.778,36.576,36.576,0,0,0,12.4-2.49c2.348-.989,5.352-1.171,7.185-2.861a4.688,4.688,0,0,0,1.221-5.882" fill="#f5333f"/>
        <path id="패스_14" data-name="패스 14" d="M1848.445,994.386c-1.517-3.252-4.635-5.95-8.457-6.053a9.4,9.4,0,0,0-3.469.454,6.5,6.5,0,0,0-1.581.653,6.612,6.612,0,0,0-1.013.346,14.724,14.724,0,0,0-1.765.643c-.811.5-2.353,1.536-2.422,1.585a33.124,33.124,0,0,0-2.336,2.493,24.818,24.818,0,0,0-4.071,6.773,31.588,31.588,0,0,0-1.32,5.508,30.141,30.141,0,0,0,.239,4.691,39.868,39.868,0,0,0,1.388,4.245c.586,1.5,1.231,2.982,1.815,4.484.461,1.411.886,2.833,1.265,4.268a63.047,63.047,0,0,1,2.074,11.366,34.852,34.852,0,0,1-.324,5.906c-1.812,5.494-5.14,10.428-7.212,15.832-.548,1.459-1.048,2.939-1.678,4.368a22.448,22.448,0,0,1-1.671,2.349c-.511.509-1.037,1.006-1.59,1.474-.6.51-1.231.985-1.874,1.445-.329.2-.661.387-1,.569-.2.112-.415.212-.623.319,2.669-5.3,5.094-10.743,6.24-16.515a37.09,37.09,0,0,0,.6-14.356,46.951,46.951,0,0,0-2.621-7.548,49.22,49.22,0,0,0-5.568-9.493,5.906,5.906,0,0,0-1.132-1.329l.356.3a88.91,88.91,0,0,1-6.924-8.575c-.355-.755-.854-1.454-1.2-2.216-.687-1.27-1.27-2.589-1.878-3.9-.048-.092-.1-.182-.156-.273q-.313-.578-.586-1.173a15.4,15.4,0,0,1-.336-1.605c.005-.13.02-.26.028-.391.118-.367.245-.732.4-1.089.24-.64.474-1.284.735-1.916,2.2-3.6,5.114-6.791,7.323-10.4,5.422-8.811,10.286-18.321,11.3-28.568a38.979,38.979,0,0,0-.052-4.336,32.4,32.4,0,0,0-.063-15.058,35.051,35.051,0,0,0-6.7-13.255,16.842,16.842,0,0,0-12.758-5.913,20.787,20.787,0,0,0-12.443,4.623c-3.883,3.393-6.721,8.984-4.454,13.828a24.424,24.424,0,0,0,2.272,4.127c.021.033.042.065.065.1.941,1.892,2.032,3.716,2.913,5.638a42.19,42.19,0,0,1,2.848,9.676c.528,3.133-.153,8.654-.7,13.47-.24.727-.487,1.453-.775,2.165-.619,1.7-1.279,3.4-1.958,5.077-3.16,4.358-6.622,8.614-8.3,13.719A26.463,26.463,0,0,0,1778.3,999c-.03-.1-.074.061-.139.7a27.089,27.089,0,0,0,2.549,13.969c.011.027.025.055.037.083.039.083.071.168.11.25l-.021-.061a5.785,5.785,0,0,0,.636,1.06,63.493,63.493,0,0,0,5.031,6.672c.175.246.346.495.523.74.872,1.211,1.763,2.409,2.651,3.609.807,1.314,1.637,2.615,2.466,3.916,2.323,3.881,2.3,2.744,5.553,10.292.124.463.233.931.321,1.4.016.093.027.185.042.278a37.546,37.546,0,0,1-.557,5.777,79.264,79.264,0,0,1-6.414,15.369c-.937,1.753-1.9,3.494-2.922,5.2q-.261.428-.525.854c-.256-.116-.513-.232-.765-.351a20.991,20.991,0,0,0-4.208-.81,24.017,24.017,0,0,0-4.9.533c-.923.315-1.86.605-2.782.924.641-1.054,1.339-2.076,2.067-3.077,3.345-4.68,6.775-9.582,8.1-15.16a23.49,23.49,0,0,0,.9-7.294,27.565,27.565,0,0,0-.453-4.715c.066.17.094.211.052.01a45.97,45.97,0,0,0-1.8-5.559,11.078,11.078,0,0,0-2.444-4.1c-.052-.074-.1-.149-.157-.221a23.02,23.02,0,0,0-1.8-2.151c-.1-.118-.2-.236-.307-.35l.011.007c-.093-.11-.183-.221-.277-.33a36.6,36.6,0,0,0-5.181-4.56c-.51-.408-1.029-.8-1.564-1.181-1.012-.65-2-1.338-2.994-2.01a35.813,35.813,0,0,0-3.7-2.82c-.2-.133-.634-.471-.905-.684-.784-.716-1.471-1.369-2.084-1.986-.291-.59-.528-1.109-.668-1.478a16.828,16.828,0,0,1-.53-8.932c.235-.941.776-2.3,1.263-3.678,1.24-1.918,2.274-3.962,3.319-5.975,1.881-3.786,3.814-7.585,4.8-11.68.213-.774.421-1.554.587-2.339a29,29,0,0,0,2.793-12.161,26.139,26.139,0,0,0-.272-6.593c-1.984-8.69-9.484-14.865-17.27-18.995-2.634-1.372-5.116-3.019-7.687-4.5a42.052,42.052,0,0,0-4.3-4.15,21.162,21.162,0,0,0-6.215-4.014c-7.326-2.848-15.967.125-21.169,5.666-8,8.255-.289,17.3,8.221,21.031a34.081,34.081,0,0,0,7.927,2.428l.087.048c1.133.595,2.492,1.207,3.9,1.869a15.441,15.441,0,0,1,4.13,3.6,29.474,29.474,0,0,1,4.059,9.243,23.824,23.824,0,0,1,1.08,7.157c0,.173-.015.337-.02.507-2.076,3.878-4.282,7.691-6.557,11.466a26.606,26.606,0,0,0-3.652,8c-.035.138-.07.272-.106.407a10.773,10.773,0,0,0-.519,2.488c0,.038,0,.083,0,.122a6.481,6.481,0,0,0,.074,1.765,16.04,16.04,0,0,0,.421,2.685,29.909,29.909,0,0,0,1.082,3.317,11.2,11.2,0,0,0,.882,1.824c.2.532.42,1.059.655,1.554.027.045.058.087.085.131.01.026.018.052.028.077,2.039,4.314,5.828,7.653,9.888,10.237,2.958,1.841,6.293,3.042,9.276,4.843.969.573,1.9,1.205,2.8,1.863.339.339.672.684.992,1.041.1.113.195.231.294.346a6.477,6.477,0,0,0,.484.612,22.2,22.2,0,0,1,1.13,2.084c.02.042.037.086.057.129.074.307.157.612.218.922s.111.61.158.917a4.6,4.6,0,0,0,.192,1.344c.071.3.129.6.187.9s.1.629.141.945c0,.226,0,.452-.009.677.02-.081.038-.162.056-.243.006.055.01.11.015.165-.027.306-.047.611-.052.918l-.035-.615a19.423,19.423,0,0,1-.236,3.471c-.08.3-.155.607-.227.912a21.482,21.482,0,0,1-1.045,2.893c-2.8,4.62-6.5,8.72-8.734,13.649a20.651,20.651,0,0,0-1.747,13.756c-.407-.119-.814-.243-1.219-.375-1.325-.439-2.641-.914-3.927-1.451-.241-.129-.482-.258-.719-.4a31.43,31.43,0,0,1-3.49-2.335q-1.839-1.622-3.522-3.4a42.657,42.657,0,0,1-2.788-3.243,24.9,24.9,0,0,1-1.979-3.816,35.974,35.974,0,0,1-1.144-6.455c-.015-.475-.036-.949-.037-1.425a66.957,66.957,0,0,1,1.045-11.25,27.011,27.011,0,0,0,.012-6.109c-.243-2.448-1.3-4.723-2.053-7.045a53.4,53.4,0,0,0-10.575-17.3,40.335,40.335,0,0,0-3.183-3.087c-1.286-1.49-2.576-2.978-3.812-4.506a48.869,48.869,0,0,0-7.938-8.334,27.6,27.6,0,0,0-4.559-4.608,13.991,13.991,0,0,0-14.633-1.129,11.989,11.989,0,0,0-5.917,6.175,10.04,10.04,0,0,0-.684,7.246,16.553,16.553,0,0,0,.97,5.589,15.617,15.617,0,0,0,4.848,6.758c.308.256.636.514.98.751,4.224,4.277,10.513,8.211,15.077,10.7,3.588,2.328,4.824,3.418,6.62,6.583a44.276,44.276,0,0,1,2.678,6.37c.026.09.049.182.073.273-.029.23-.057.46-.094.69a62.526,62.526,0,0,0-.77,16.228,39.578,39.578,0,0,0,3.116,13.538,45.673,45.673,0,0,0,11.465,15.019,47.583,47.583,0,0,0,8.582,6.348c6.159,3.118,13.022,5.7,20.1,5.73a5.12,5.12,0,0,0,1.182,1.111,5.317,5.317,0,0,0,.632.331c.016.008.032.016.047.025,1,.505,1.792,1.313,2.8,1.811a4.647,4.647,0,0,0,1.218.5,4.085,4.085,0,0,0,3.73.931c2.646-.714,4.425-2.561,5.492-2.99a6.955,6.955,0,0,1,.758-.347c1.271-.3,1.443-.03,4.234.626.213.057.428.1.641.14a6.836,6.836,0,0,0,3.4.224c1.234-.056,2.473-.22,3.69-.394,2.06-.308,4.012-1.075,6.052-1.481,3.214-.631,3.909-.273,7.59-.99a76.766,76.766,0,0,0,10.992-3.057,61.7,61.7,0,0,0,13.963-6.675,36.077,36.077,0,0,0,6.253-3.658,28.365,28.365,0,0,0,5.537-4.69,30.477,30.477,0,0,0,5.145-6.656c2.156-3.575,3.183-7.593,4.97-11.32l.022-.046c8.56-9.664,10.836-22.485,8.24-34.572a66.915,66.915,0,0,1-1.652-13.6c-.268-6.069,2-13.181-1.711-18.444" fill="#00946e"/>
        <path id="패스_15" data-name="패스 15" d="M1768.521,1070.666c.742-3.161,1.947-6.208,2.975-9.3,3.491-9.709,6.017-20.876.376-30.151a28.651,28.651,0,0,0-4.671-6.084,58.987,58.987,0,0,0-6.369-5.072c-2.6-1.984-6.046-5.07-7.6-8.124-3.669-7.506,1.024-14.462,4.083-24.891a61.048,61.048,0,0,0,2.519-15.474c.262-6.264-1.571-12.786-6.3-17.214a24.6,24.6,0,0,0-5.495-3.929,4.6,4.6,0,0,0-4.3-.422c-.454.257-.97.614-1.043,1.149.1,1.474,1.51,2.478,2.85,2.948l.078.04c.088.047.143.075.158.08a19.586,19.586,0,0,1,2.993,1.945c6.433,4.848,7.46,12.468,5.722,22.88a70.366,70.366,0,0,1-3.771,13.322c-2.082,5.545-4.337,11.46-3.034,17.358,1.016,5.871,5.677,10.215,10.274,13.807,3.874,2.928,5.8,3.972,8.725,8.01,7.012,9.862,3.45,20.249-1.439,34-2.273,6.706-3.022,14.447.687,20.7a20.016,20.016,0,0,0,3.1,4.3,2.549,2.549,0,0,0,2.97.177,2.456,2.456,0,0,0,.577-2.369c-.884-2.1-1.1-1.6-2.194-3.572-1.616-2.94-1.771-3.187-2.3-6.121a27,27,0,0,1,.436-8" fill="#007a4c"/>
        <path id="패스_16" data-name="패스 16" d="M1803.62,942.793a3.316,3.316,0,0,0-3.083-1.722c-.039.011-.078.025-.115.038a.506.506,0,0,0-.223.118c-1.663,1.749.089,4.644.028,4.87a26.816,26.816,0,0,1,.822,5.79,66.331,66.331,0,0,1-.636,12.567,69.077,69.077,0,0,1-4.022,13.675,104.255,104.255,0,0,1-5.9,11.7c-2.8,5.211-6.333,10.988-5.267,17a31.648,31.648,0,0,0,2.695,7.647,66.581,66.581,0,0,0,5.074,7.9,133.842,133.842,0,0,1,8.943,14.524c2.44,5,3.683,7.37,4.482,12.621a32.678,32.678,0,0,1-1.063,9.457,36.818,36.818,0,0,1-5.066,10.466,71.447,71.447,0,0,1-10.128,11.671c-1.425,1.313-2.872,2.6-4.39,3.817a5.542,5.542,0,0,0-2.127,2.273c-.652,1.706.671,3.028,2.609,2.574a6.233,6.233,0,0,0,2.351-1.4c1.167-.919,2.286-1.892,3.388-2.881a86.164,86.164,0,0,0,9.531-10.138c5.99-7.412,10.093-16.606,9.5-26.015a34.439,34.439,0,0,0-3.213-10.891,113.339,113.339,0,0,0-9.654-16.633c-2.912-4.326-5.493-7.19-7.57-12.8a19.729,19.729,0,0,1-1-4.345,17.889,17.889,0,0,1,.238-2.23c1.3-5.882,7.075-13.885,10.429-21.827a64.466,64.466,0,0,0,5.336-21.365,68.928,68.928,0,0,0-.089-8.4,19.652,19.652,0,0,0-1.885-8.053" fill="#007a4c"/>
        <path id="패스_17" data-name="패스 17" d="M1837.778,1000.267a2.016,2.016,0,0,0-1.219-1.291,2.808,2.808,0,0,0-1.887,1.164c-1,1.3-.926,3.024-1.343,4.532a56.555,56.555,0,0,0-.989,16.322c.721,9.2,2.7,16.119,1.856,24.5a43.213,43.213,0,0,1-2.732,11.658,40.876,40.876,0,0,1-5.682,10.788c-3.171,4.278-9.008,9.082-14.736,13.1a51.282,51.282,0,0,1-5.43,2.981,37.175,37.175,0,0,1-4.243,1.813,27.788,27.788,0,0,1-3.063.79c-1.331.158-2.782.679-3.3,1.984a1.76,1.76,0,0,0,.935,2.1c1.206.727,2.644.381,3.954.083a32.823,32.823,0,0,0,5.543-1.817,54.365,54.365,0,0,0,12.308-7.341,69.484,69.484,0,0,0,10.868-10,51.043,51.043,0,0,0,9.949-23.893c1.333-9.082-.878-18.059-1.7-27.043a68.979,68.979,0,0,1,.214-12.051c.224-1.719.458-3.437.73-5.15a5.132,5.132,0,0,0-.042-3.226" fill="#007a4c"/>
        <path id="패스_18" data-name="패스 18" d="M1759.245,1082.875c-2-.4-3.663-.469-4.166-.665-4.724-1.309-6.866-2.031-10.376-4.394-5.835-4.191-9.276-10.623-11.038-18.348A163.523,163.523,0,0,0,1727.59,1040a167.413,167.413,0,0,0-10.039-20.273c-2.108-3.263-4.084-6.691-6.919-9.433a22.431,22.431,0,0,0-6.2-4.491,3.441,3.441,0,0,0-3.487.5c0,2.188,2.457,3.093,3.871,4.409-.931-.82.719.677,1.022.984a30.728,30.728,0,0,1,3.082,3.265c5.528,7.255,11.33,19.007,15.329,29.116,1.121,3,2.724,8.139,3.979,12.822,1.479,5.579,2.726,11.371,6,16.264a30.228,30.228,0,0,0,8.514,8.778,35.251,35.251,0,0,0,14.668,5.088c3.193.548,5.382-2.68,1.833-4.159" fill="#007a4c"/>
        <path id="패스_19" data-name="패스 19" d="M937.575,1014.7c-1.578-3.115-5.973-4.764-9.5-3.437-3.149,1.03-6.336,2-9.4,3.2-2.393.438-4.837.649-7.282.853-.1-4.419.177-9.3,2.587-14.009.776-1,1.739-1.883,2.549-2.866,6.224-5.851-1.526-14.463-9.28-10.007a7.217,7.217,0,0,0-2.233,2.612,38.92,38.92,0,0,0-2.461,3.807,36.625,36.625,0,0,0-2.532,13.47c.035,2.042.141,4.086.3,6.128-5.166-1.511-10.523-2.721-15.872-1.749-3.727.769-7.512,2.153-10.079,4.652-.374.491-.665.871-.9,1.17-.1-.229-.193-.461-.295-.691-5.364-11.965-8.34-18.443-8.083-27.651,6.482-2.017,12.269-.246,23.608-1.893a17.3,17.3,0,0,0,8.032-3.6c1.85-2.056,1.226-5.218-1.179-6.87-2.72-1.71-6.167-.972-9.368-.421.1-.79.029-.318.947-2.66,1.356-2.25.311-1.2,3.248-4.449,7.148-4.889,8.762-5.708,17.615-8.7a29.17,29.17,0,0,0,3.227-.778c6.242-2.225,4.743-10.475-2.05-11.332a10.2,10.2,0,0,0-4.932.829,76.5,76.5,0,0,0-1.6-8.879c-1.378-6.314-2.906-12.779-6.714-18.435-2.938-5.854-12.9-4.769-13.7,1.48-.327,1.853.7,3.495,1.72,5.08a34.719,34.719,0,0,1,2.448,5.218c1.713,5.429,2.97,10.95,4.38,16.435a33.741,33.741,0,0,1,.689,3.736c-.086.268-.163.538-.225.811-9.315,4.67-13.025,9.144-15.759,16.091-.557,2.2-1.463,4.564-1.347,6.875-1.842.147-3.683.3-5.509.543-.728.174-1.421.311-2.1.446,1.708-6.2,6.278-15.142,11.045-23.142a39.387,39.387,0,0,1,5.171-5.364c5.522-3.661,1.49-11.672-5.5-10.9-4.007.6-6.495,3.874-8.9,6.45-.138-.309-.33-.739-.622-1.36a39.892,39.892,0,0,1-1.531-6.954c.024-5.932-8.834-8.791-12.875-4.126-1.941,2.2-1.379,5-.816,7.592a25.592,25.592,0,0,0,5.582,10.792c1.219,1.058,2.318,2.4,3.59,3.5-8.253,13.306-13.037,28.544-9.972,43.911.917,5.041,3.721,11.951,6.426,18.154a66.624,66.624,0,0,0-6.553-3.151,79.126,79.126,0,0,0-8.862-2.53c1.493-9.11-.381-15.26-1.387-21.7-.351-1.875-.575-6.453-1.377-12.232-1.737-7.912-3.839-15.861-7.443-23.357a42.255,42.255,0,0,0-3.937-6.691,20.324,20.324,0,0,1,3.463-2.807c1.114-.775,2.315-1.447,3.46-2.187a4.536,4.536,0,0,0,1.906-5.425c-.666-2.5-3.754-4.106-6.567-3.815-2.424.317-4.245,1.924-6.023,3.245-.989.853-2,1.735-2.977,2.65-2.118-2.4-4.274-4.78-6.3-7.213-.942-1.237.034.091.422.681-2.169-2.993-1.327-2.475-4.609-7.445l.866,1.256c-.28-.532-.912-1.487-1.318-2.085l.249.358a6.164,6.164,0,0,0-3.353-2.895c-3.649-1.443-8,.751-8.378,4.163a4.617,4.617,0,0,0,.1,1.634,2.4,2.4,0,0,0,.1.483,17.679,17.679,0,0,0,.611,2.111l.183.534a28.372,28.372,0,0,0,5.686,9.923c3.493,4.02,7.205,7.919,10.315,12.174,1.41,2.316,2.51,4.3,3.42,6.136a11.706,11.706,0,0,1-3.361-.795c-.272-.113-.535-.241-.8-.367a49.734,49.734,0,0,1-9.952-7.088,39.689,39.689,0,0,1-3.224-3.55,7.785,7.785,0,0,0-1.815-2.2c-3.317-3.3-9.974-2.1-11.615,1.832-1.609,3.379,1.055,6.552,3.36,9.234a57.075,57.075,0,0,0,18.642,13.449,25.944,25.944,0,0,0,12.1,1.531c.33-.034.669-.049,1.011-.061.553,2.027,1.14,4.274,1.88,6.937.853,3.831.884,7.732,1.568,11.577,1.146,5.568.935,3.48,2.293,9.08.655,3.366,1.573,6.717,1.921,10.111-.019.295-.05.589-.093.884-.71-.094-1.42-.187-2.131-.272a65.809,65.809,0,0,0-4.441-12.144c-.731-1.808-1.334-3.649-1.967-5.482.014.044.033.1.049.146a5.4,5.4,0,0,0-1.932-2.785c-3.354-3.253-9.846-2.1-11.536,1.819-1.278,2.528.29,5.182,1.11,7.684,1.03,3.127,2.578,6.1,3.924,9.135-1.777-.259-3.547-.559-5.3-.94l-.2-.054c-2.7-1.045-6.188-.78-8.108,1.192a5.605,5.605,0,0,0-.45,8.2c1.751,2.1,4.782,2.443,7.428,3.089,9.859,2.005,20.01,2,29.879,4.005,8.011,1.449,11.125,2.8,21.273,7.794a22.2,22.2,0,0,1-1.369,2.316c-3.074,5.677-6.735,11.847-5.867,18.4a10.033,10.033,0,0,0,6.892,7.494c2.67.867,5.482.632,8.242.609,5.726-.3,11.741.314,17.145-1.5,4.7-1.627,6.447-5.747,5.1-9.959a29.979,29.979,0,0,0-2.828-9.729,74.025,74.025,0,0,0-4.888-7.811,9.345,9.345,0,0,1,2.841-5.826l.364-.223a21.237,21.237,0,0,1,2.23-.871c.32-.037,1.025-.131,1.734-.179l.269.008c4.528.42,2.438.284,8.878,2.076,5.016,1.644,10.348,1.577,15.5.893,4.956-.306,9.871-.961,14.3-2.9,2.71-1.149,6.175-1.362,8.291-3.323a5.457,5.457,0,0,0,1.412-6.82" fill="#8a7a28"/>
        <path id="패스_20" data-name="패스 20" d="M726.158,939.536q-1.038-2.03-2.236-3.988a55.354,55.354,0,0,0-8.933-10.416c-.447-.378-.919-.733-1.391-1.088a52.931,52.931,0,0,1-6.235-10.237c-2.991-7.772-4.443-14.845-4.017-23.018,4.609-11.441,12.546-22.285,14.7-38.1a33.91,33.91,0,0,0-.334-12.62c-1.468-5.853-4.01-11.581-7.829-15.537-4.745-4.4-10.836-6.1-16.374-4.639a20.226,20.226,0,0,0-11.887,7.441,26.58,26.58,0,0,0-5.933,11.114c-2.133,6.2-3.54,12.77-5.223,19.2-2.3,7.575-5.841,17.047-7.359,26.431-4.569,12.156-6.243,24.548-2.151,35.818a56.217,56.217,0,0,0,3.88,8.9,68.819,68.819,0,0,0,7.1,8.382c3.36,3.4,7.683,5.937,11.935,8.519a31.972,31.972,0,0,1,5.337,4.338,43.047,43.047,0,0,1,5.218,8.986q.36,1.047.669,2.113a77.734,77.734,0,0,1,2.541,15.675c.014.194.021.389.033.583a51.2,51.2,0,0,1-.364,6.556,57.655,57.655,0,0,1-1.292,6.944,68.112,68.112,0,0,1-4.786,11.088c-.325.624-.677,1.24-1.021,1.859-.658,1.033-1.337,2.059-2.058,3.069-8.595,11.621-19.248,22.568-25.077,34.841.054-.822.108-1.644.17-2.474.066-.75.137-1.517.222-2.323.282-2.493.689-4.9,1.171-7.261,2.383-4.488,4.857-8.959,6.95-13.5,3.655-8.811,5.465-17.981,4.17-26.609A29.912,29.912,0,0,0,673.9,982.7c-1.286-3.254-2.335-6.658-4.691-9.387-5.182-7.033-13.419-11.666-20.691-17.01a59.838,59.838,0,0,1-8.881-7.716c-.146-.182-.294-.363-.432-.549a52.164,52.164,0,0,1-5.959-9.793,22.775,22.775,0,0,1-.815-3.624,26.56,26.56,0,0,1,.51-4.044c2.112-6.164,5.363-12.167,8.2-18.208,3.884-7.767,7.815-15.524,11.917-23.238,4.031-8.12,6.82-16.768,7.031-25.087a24.745,24.745,0,0,0,.039-2.821c-.038-.356-.085-.714-.135-1.071q-.074-.951-.2-1.893c-.1-.352-.221-.692-.341-1.033-1.231-5.354-3.789-10.378-7.761-13.013-5.844-4-12.758-3.071-18.678-.837a24.036,24.036,0,0,0-11.532,9.111c-5.1,6.71-7.209,16.334-8.381,25.528-.561,3.914-.485,7.952-.7,11.927-1.687,6.241-4.711,13.34-7.031,20.554-.511,1.062-1.024,2.125-1.527,3.19a76.941,76.941,0,0,0-6.361,16.6,36.492,36.492,0,0,0-.37,16.347,54.038,54.038,0,0,0,10.508,20.194,73.374,73.374,0,0,0,8.554,9.022c4.707,3.951,10.031,7.343,15.073,10.989a52.827,52.827,0,0,1,6.01,4.942,19.271,19.271,0,0,1,1.488,2.544,27.9,27.9,0,0,1,1.29,5.472c.008.054.011.108.018.161a41.465,41.465,0,0,1-.912,6.517c-.551,1.629-1.2,3.247-1.915,4.853-3.575,7.616-8.365,14.959-11.533,22.666a110.914,110.914,0,0,0-6.244,21.665,51.444,51.444,0,0,0-.5,19.536,53.334,53.334,0,0,0,4.049,9.863,52.154,52.154,0,0,0,5.4,6.734c.1.116.213.225.32.338,2.6,8.043,6.086,16.509,12.853,19.115,3.051.872,7.28.532,11.266-.2,1.537.074,3.073.1,4.6.117a28.333,28.333,0,0,0,13.333-4.433c2.723-.224,4.74.2,8.841.911,7.588,1.369,11.741-.106,14.156-5.51a12.806,12.806,0,0,0,3.081-4.408c2.241-4.782,1.429-10.816.7-16.2a90.963,90.963,0,0,1-.91-9.31c.015-.062.033-.124.047-.186a10.69,10.69,0,0,0,.08-1.219,79.371,79.371,0,0,1,1.477-8.851,99.812,99.812,0,0,1,5.84-16.137c.171-.417.353-.827.53-1.24,2.376-4.084,4.96-8.057,7.769-12.007,6.437-8.974,13.831-17.119,18.275-28.122,3.408-8.877,5.8-18.82,5.65-28.989a87.354,87.354,0,0,0-10.145-35.924" fill="#00946e"/>
        <path id="패스_21" data-name="패스 21" d="M648.058,1053.532c-.421-3.661-.006-7.014.972-13.157,2.174-15.368,14.709-39.865,5.088-59.911-2.675-5.207-6.783-8.855-10.909-11.971-5.026-3.807-9.41-6.917-12.177-9.357-7.612-6.9-9.9-10.92-10.889-19.12-1.552-13.929,4.213-26.991,10.8-39.81,3.853-8.054,8.855-15.846,9.52-25.74.416-2.443.254-5.539-1.757-6.9-2.231-2.026-5.541-.139-5.817,3.218-.645,8.684-2.3,10.918-5.837,18.323-7.486,14.869-16.255,30.739-14.795,49.8.87,21.24,16.643,29.832,29.152,39.55l.178.148c3.364,2.975,4.087,3.835,5.519,6.044,1,1.836,1,1.582,2.134,5.733,3.182,13.4-4.875,29.466-8.219,49.756a49.5,49.5,0,0,0,3.658,30.008c2.812,6.619,6.765,12.32,10.638,17.982,1.669,2.306,3.378,6.01,6.162,4.962,1.882-.38,3.086-2.841,2.852-5.237-.543-3.408-3.469-5.828-5.025-8.642-6.69-9.974-10.1-16.433-11.249-25.676" fill="#007a4c"/>
        <path id="패스_22" data-name="패스 22" d="M715.514,950.865c-3.6-8.1-9.563-13.916-14.753-20.3-4.385-5.181-9.619-12.922-11.638-18.721-1.4-4.389-1.745-7.087-2.155-14.055A57.613,57.613,0,0,1,688.3,887.11c1.6-7.338,4.7-13.863,6.641-21.025,1.478-5.486,3.03-11.092,3.173-17.024-.079-2.114.239-4.477-.67-6.395-1.993-4.786-7.817-2.666-7.218,2.688.483,6.584-1.3,12.7-4.281,22.123-2.49,6.956-5.01,13.951-6.094,21.609a58.679,58.679,0,0,0,2.254,26.678c5.19,14.552,18.63,26.771,24.322,35.4,7.563,11.879,5.515,23.578-.157,40.065-4.519,13.36-11.469,24.427-19.9,37.426-6.916,9.578-13.9,19.288-18.284,31.269-2.69,6.675-5.221,14.081-4.276,21.961.384,2.442.378,5.349,2.051,7.068,1.95,2.1,5.047,1.246,5.982-1.64.593-1.545.131-3.225-.108-4.853-.511-4.228-.334-2.92-.267-5.12.3-3.473,1.5-7.185,3.655-12.653,2.725-6.568,3.011-7.694,6.6-13.644,4.083-6.8,8.88-12.809,13.169-19.382,6.47-10.441,13.073-20.984,17.535-33.167,5.365-14.365,10.178-32.035,3.086-47.633" fill="#007a4c"/>
      </g>
    </g>
  </g>
</svg>
