<svg xmlns="http://www.w3.org/2000/svg" xmlns:xlink="http://www.w3.org/1999/xlink" width="80" height="80" viewBox="0 0 80 80">
  <defs>
    <clipPath id="clip-path">
      <rect id="사각형_5" data-name="사각형 5" width="80" height="58" fill="none"/>
    </clipPath>
  </defs>
  <g id="그룹_10" data-name="그룹 10" transform="translate(-132 -580)">
    <rect id="사각형_7" data-name="사각형 7" width="80" height="80" transform="translate(132 580)" fill="none"/>
    <g id="그룹_7" data-name="그룹 7" transform="translate(132 591)">
      <g id="그룹_6" data-name="그룹 6" transform="translate(0 0.001)" clip-path="url(#clip-path)">
        <path id="패스_23" data-name="패스 23" d="M45.443,64.274a23.558,23.558,0,0,0-.9,8.164A10.047,10.047,0,0,0,48.3,79.55a10.648,10.648,0,0,0,7.716,1.574,31.186,31.186,0,0,0,7.659-2.465A20.065,20.065,0,0,0,69.6,75.321a6.7,6.7,0,0,0,2.365-6.038,72.962,72.962,0,0,1-21.506-1.636c-2.1-.48-4.295-1.124-5.014-3.374" transform="translate(-15.61 -23.127)" fill="#ff5100"/>
        <path id="패스_24" data-name="패스 24" d="M70.225,17.074c.14-3.718.06-7.473-1.019-10.422a9.733,9.733,0,0,0-7.917-6.5C57.908-.361,54.228.5,50.593,1.5a32.565,32.565,0,0,0-9.7,4.018,22.952,22.952,0,0,0-8.2,9.675,10.893,10.893,0,0,0-1.121,4.637c.128,3.082,2.531,4.1,4.682,4.485,8.8,1.6,18.421.287,27.986-3.808,1.868-.8,4.317-2.725,5.995-3.431" transform="translate(-11.079 0)" fill="#ff5100"/>
        <path id="패스_25" data-name="패스 25" d="M29.759,36.972C33.9,24.123,46.925,14.152,61.331,12.8c5.066-.476,10.4.086,14.76,2.527,4.157,2.328,7.069,6.136,9.616,9.967,2.2,3.3,4.263,6.836,4.67,10.7.644,6.113-3.157,12.149-8.583,15.68S69.563,56.512,62.932,56.59c-7.118.083-14.392-1.218-20.467-4.653A28.1,28.1,0,0,1,29.759,36.972" transform="translate(-10.448 -4.55)" fill="#f5e64f"/>
        <path id="패스_26" data-name="패스 26" d="M28.26,47.352c-7.309-5.4-16.651-7.3-25.727-8.3a2.081,2.081,0,0,0-1.413.181,1.839,1.839,0,0,0-.615,1C-.4,43.045.045,46.114.838,48.964a38.545,38.545,0,0,0,10.754,17.71c4.671-3.815,8.139-8.838,11.544-13.79l1.038-1.51,3.4-4.939c.2.314.4.727.189,1.032s-.854-.117.5-.115" transform="translate(0 -14.037)" fill="#f5e64f"/>
        <path id="패스_27" data-name="패스 27" d="M83.339,31.942c-.591,3.118,2.542,6.36,6.171,6.385s6.821-3.171,6.289-6.3-4.651-5.379-8.115-4.438c-.807.219-3.85,1.738-4.344,4.349" transform="translate(-29.234 -9.851)" fill="#fff"/>
        <path id="패스_28" data-name="패스 28" d="M85.79,33.691c0-2.2,2.085-3.982,4.657-3.982S95.1,31.492,95.1,33.691s-2.085,3.982-4.657,3.982S85.79,35.89,85.79,33.691" transform="translate(-30.12 -10.69)" fill="#2d2a26"/>
      </g>
    </g>
  </g>
</svg>
