<svg xmlns="http://www.w3.org/2000/svg" xmlns:xlink="http://www.w3.org/1999/xlink" width="80" height="80" viewBox="0 0 80 80">
  <defs>
    <clipPath id="clip-path">
      <rect id="사각형_6" data-name="사각형 6" width="70" height="70" transform="translate(0.108 0.108)" fill="none"/>
    </clipPath>
  </defs>
  <g id="그룹_11" data-name="그룹 11" transform="translate(-380 -418)">
    <rect id="사각형_8" data-name="사각형 8" width="80" height="80" transform="translate(380 418)" fill="none"/>
    <g id="그룹_9" data-name="그룹 9" transform="translate(380 418)">
      <g id="그룹_8" data-name="그룹 8" transform="translate(4.892 4.892)" clip-path="url(#clip-path)">
        <path id="패스_29" data-name="패스 29" d="M25.61,28.9A107.457,107.457,0,0,0,4.547,50.719C1.318,55.236-1.5,60.534.892,65.533c1.691,3.541,5.755,6.273,10.127,8.24,9.518,4.281,20.879,5.592,31.737,5.28,7.216-.207,14.711-1.206,20.077-4.593,8-5.049,9.126-14.379,5.169-21.94S55.977,38.87,47.555,33.564c-3.524-2.22-7.272-4.4-11.641-5.417S27,27.808,25.61,28.9" transform="translate(0 -8.88)" fill="#a8a0a0"/>
        <path id="패스_30" data-name="패스 30" d="M29.579,21.662c-3.041-2.233-9.495-5.209-11.532-8.153-.959-1.385-1.765-3.22-.622-4.511a5.45,5.45,0,0,1,2.387-1.271l5.212-1.756a2.7,2.7,0,0,1-.252-3.9,6.7,6.7,0,0,1,4.3-1.992,7.3,7.3,0,0,1,4.769.805A2.835,2.835,0,0,1,35.071,4.64C35.2,2.342,37.735.485,40.422.171A11.839,11.839,0,0,1,47.974,2.19,3.194,3.194,0,0,1,49.1,3.223c.783,1.413-.981,2.851-2.524,3.71a14.241,14.241,0,0,1,9.38,3.532,2.123,2.123,0,0,1,.9,1.673,2.4,2.4,0,0,1-.734,1.195c-3.354,3.64-11.46,6.206-14.829,9.835Z" transform="translate(-3.224 0)" fill="#a8a0a0"/>
        <path id="패스_31" data-name="패스 31" d="M32.976,33.366S26.7,40.695,25,44.843a4.274,4.274,0,0,0-.408,1.592.481.481,0,0,0,.182.43.754.754,0,0,0,.769-.033,1.077,1.077,0,0,0,.369-.531,61.188,61.188,0,0,1,7.455-12.991.449.449,0,0,0-.393.058" transform="translate(-4.701 -10.694)" fill="#54565a"/>
        <path id="패스_32" data-name="패스 32" d="M39.983,34.916a21.829,21.829,0,0,0-.544,12,2.846,2.846,0,0,0,1.779,2.3,4.5,4.5,0,0,0-.294-2.547,27.362,27.362,0,0,1-.882-11.85c-.068.13-.135.259-.06.1" transform="translate(-7.426 -11.183)" fill="#54565a"/>
        <path id="패스_33" data-name="패스 33" d="M44.917,33.554a37.431,37.431,0,0,0,2.9,4.572c.952,1.343,1.919,2.682,2.966,3.99A36.269,36.269,0,0,0,53.3,44.962a4.951,4.951,0,0,0,1.807,1.288,1.29,1.29,0,0,0,.5.1c.171-.009.341-.088.372-.21a.329.329,0,0,0-.055-.227,6.21,6.21,0,0,0-1.288-1.478,78.126,78.126,0,0,1-9.719-10.877" transform="translate(-8.586 -10.778)" fill="#54565a"/>
      </g>
    </g>
  </g>
</svg>
